<?xml version="1.0" encoding="iso-8859-1"?>
<!-- Generator: Adobe Illustrator 19.0.0, SVG Export Plug-In . SVG Version: 6.00 Build 0)  -->
<svg version="1.1" id="Capa_1" xmlns="http://www.w3.org/2000/svg" xmlns:xlink="http://www.w3.org/1999/xlink" x="0px" y="0px"
	 viewBox="0 0 512 512" style="enable-background:new 0 0 512 512;" xml:space="preserve">
<g>
	<g>
		<rect x="392" y="60" width="30" height="30"/>
	</g>
</g>
<g>
	<g>
		<path d="M467.001,120H512V32.703L348.485,0H212v15c0,41.355,33.645,75,75,75h19.243l-30.2,91.354
			c-40.062,2.591-77.576,19.361-106.618,47.877C137.553,260.526,120,301.996,120,346v31c0,8.271-6.729,15-15,15s-15-6.729-15-15
			v-96.147c0-29.018-5.631-57.325-16.735-84.134s-27.139-50.807-47.658-71.326L0,99.787V413.25C0,467.701,44.299,512,98.75,512H150
			c24.061,0,46.948-9.294,64.446-26.17c0.396-0.382,0.784-0.771,1.173-1.159C222.501,500.724,238.457,512,257,512h195v-15
			c0-41.355-33.645-75-75-75h-5.521c27.139-21.994,45.694-54.32,49.705-91H512v-15c0-41.355-33.645-75-75-75h-15v-92.527
			C439.866,144.801,455.96,134.678,467.001,120z M302,420.921v-39.068c21.597-10.419,39.424-28.779,49.911-51.054h39.041
			C384.41,377.222,347.964,414.255,302,420.921z M437,271c19.557,0,36.239,12.539,42.43,30H331.271l-3.535,10.001
			c-7.731,21.875-24.828,39.346-45.735,46.735L272,361.271V452c11.481,0,92.078,0,105,0c19.557,0,36.239,12.539,42.43,30H257
			c-8.271,0-15-6.729-15-15V362h-30v60c0,32.523-28.393,60-62,60H98.75C60.841,482,30,451.159,30,413.25V178.305
			c19.533,30.314,30,65.625,30,102.547V377c0,24.813,20.187,45,45,45s45-20.187,45-45v-31c0-74.439,61.458-135,137-135h10.84
			l49.917-151H287c-19.557,0-36.239-12.539-42.43-30h100.944L482,57.297V90h-31.679l-4.332,7.489
			C437.958,111.375,423.018,120,407,120h-15v151H437z"/>
	</g>
</g>
<g>
</g>
<g>
</g>
<g>
</g>
<g>
</g>
<g>
</g>
<g>
</g>
<g>
</g>
<g>
</g>
<g>
</g>
<g>
</g>
<g>
</g>
<g>
</g>
<g>
</g>
<g>
</g>
<g>
</g>
</svg>
